<svg xmlns="http://www.w3.org/2000/svg" xmlns:xlink="http://www.w3.org/1999/xlink" width="500" zoomAndPan="magnify" viewBox="0 0 375 374.999991" height="500" preserveAspectRatio="xMidYMid meet" version="1.2"><defs><clipPath id="6063170fcd"><path d="M 125.6875 110.085938 L 249.4375 110.085938 L 249.4375 183 L 125.6875 183 Z M 125.6875 110.085938 "/></clipPath><clipPath id="12b77b5e0b"><path d="M 191 161 L 226 161 L 226 200 L 191 200 Z M 191 161 "/></clipPath><clipPath id="f791ce579c"><path d="M 189.058594 195.625 L 219.410156 159.308594 L 227.054688 165.699219 L 196.703125 202.011719 Z M 189.058594 195.625 "/></clipPath><clipPath id="d20de83323"><path d="M 192.253906 191.800781 L 216.203125 163.144531 C 217.050781 162.128906 218.265625 161.492188 219.582031 161.375 C 220.898438 161.257812 222.207031 161.667969 223.21875 162.515625 C 224.234375 163.363281 224.871094 164.578125 224.988281 165.894531 C 225.105469 167.210938 224.695312 168.519531 223.847656 169.535156 L 199.898438 198.191406 C 199.050781 199.203125 197.835938 199.839844 196.519531 199.957031 C 195.203125 200.074219 193.894531 199.664062 192.878906 198.816406 C 191.867188 197.972656 191.230469 196.753906 191.113281 195.4375 C 190.996094 194.125 191.40625 192.8125 192.253906 191.800781 Z M 192.253906 191.800781 "/></clipPath><clipPath id="208ecd7949"><path d="M 124.839844 110.085938 L 250.257812 110.085938 L 250.257812 154.679688 L 124.839844 154.679688 Z M 124.839844 110.085938 "/></clipPath><clipPath id="9167da78c7"><path d="M 187.5 110.085938 L 250.160156 132.382812 L 187.5 154.679688 L 124.839844 132.382812 Z M 187.5 110.085938 "/></clipPath></defs><g id="410e34fa06"><g clip-rule="nonzero" clip-path="url(#6063170fcd)"><path style=" stroke:none;fill-rule:evenodd;fill:#4289c8;fill-opacity:1;" d="M 222.402344 143.847656 C 222.402344 154.847656 222.402344 165.84375 222.402344 176.761719 C 222.402344 184.207031 152.679688 184.207031 152.679688 176.761719 C 152.679688 165.84375 152.679688 154.847656 152.679688 143.847656 L 187.539062 156.539062 Z M 187.539062 154.59375 L 125.6875 132.085938 L 187.539062 110.085938 L 249.308594 132.085938 Z M 187.539062 154.59375 "/></g><path style=" stroke:none;fill-rule:evenodd;fill:#4289c8;fill-opacity:1;" d="M 140.324219 139.277344 L 140.324219 159.078125 C 142.101562 159.5 143.457031 161.105469 143.457031 163.054688 C 143.457031 164.40625 142.78125 165.589844 141.679688 166.351562 C 142.441406 170.753906 145.402344 176.675781 142.355469 178.199219 C 142.273438 178.199219 142.1875 178.285156 142.101562 178.285156 L 142.101562 171.9375 L 140.832031 171.9375 L 140.832031 178.707031 C 140.074219 178.875 139.394531 178.960938 139.394531 178.960938 C 139.394531 178.960938 138.71875 178.875 137.957031 178.707031 L 137.957031 171.9375 L 136.6875 171.9375 L 136.6875 178.285156 C 136.601562 178.285156 136.519531 178.199219 136.433594 178.199219 C 133.386719 176.675781 136.347656 170.753906 137.027344 166.351562 C 136.011719 165.589844 135.332031 164.40625 135.332031 163.054688 C 135.332031 161.105469 136.6875 159.5 138.464844 159.078125 L 138.464844 138.601562 Z M 140.324219 139.277344 "/><g clip-rule="nonzero" clip-path="url(#12b77b5e0b)"><g clip-rule="nonzero" clip-path="url(#f791ce579c)"><g clip-rule="nonzero" clip-path="url(#d20de83323)"><path style=" stroke:none;fill-rule:nonzero;fill:#ffffff;fill-opacity:1;" d="M 189.058594 195.625 L 219.410156 159.308594 L 227.054688 165.699219 L 196.703125 202.011719 Z M 189.058594 195.625 "/></g></g></g><path style=" stroke:none;fill-rule:nonzero;fill:#ffffff;fill-opacity:1;" d="M 185.757812 201.214844 C 183.703125 196.476562 180.644531 187.253906 183.648438 177.40625 C 188.574219 161.25 207.910156 149.664062 231.179688 151.164062 C 234.269531 170.875 226.652344 189.34375 212.304688 197.582031 C 202.640625 203.132812 192.628906 202.484375 187.890625 201.824219 C 192.742188 198.144531 198.191406 193.417969 203.640625 187.429688 C 212.050781 178.191406 217.660156 169.027344 221.375 161.710938 C 216.039062 169.15625 209.625 177.195312 201.964844 185.414062 C 196.4375 191.339844 190.976562 196.589844 185.757812 201.214844 Z M 185.757812 201.214844 "/><path style=" stroke:none;fill-rule:nonzero;fill:#ffffff;fill-opacity:1;" d="M 179.554688 201.730469 C 175.925781 202.828125 168.9375 204.273438 162.007812 201.242188 C 150.640625 196.269531 143.839844 181.179688 146.917969 164.332031 C 161.558594 163.757812 174.382812 170.886719 179.167969 182.054688 C 182.394531 189.578125 181.070312 196.824219 180.179688 200.226562 C 177.910156 196.375 174.925781 191.996094 171.023438 187.511719 C 165.003906 180.589844 158.796875 175.714844 153.777344 172.382812 C 158.75 176.910156 164.070312 182.273438 169.410156 188.5625 C 173.265625 193.101562 176.628906 197.53125 179.554688 201.730469 Z M 179.554688 201.730469 "/><path style=" stroke:none;fill-rule:nonzero;fill:#65b230;fill-opacity:1;" d="M 185.832031 202.863281 C 183.9375 198.503906 181.125 190.019531 183.886719 180.957031 C 188.421875 166.089844 206.210938 155.429688 227.625 156.808594 C 230.46875 174.949219 223.460938 191.941406 210.257812 199.523438 C 201.367188 204.628906 192.152344 204.035156 187.789062 203.425781 C 192.257812 200.039062 197.273438 195.6875 202.285156 190.179688 C 210.023438 181.679688 215.1875 173.246094 218.605469 166.515625 C 213.691406 173.363281 207.792969 180.765625 200.742188 188.324219 C 195.65625 193.78125 190.628906 198.609375 185.832031 202.863281 Z M 185.832031 202.863281 "/><path style=" stroke:none;fill-rule:nonzero;fill:#65b230;fill-opacity:1;" d="M 180.121094 203.339844 C 176.78125 204.347656 170.351562 205.679688 163.976562 202.890625 C 153.515625 198.316406 147.257812 184.429688 150.089844 168.925781 C 163.5625 168.398438 175.359375 174.957031 179.765625 185.234375 C 182.734375 192.15625 181.515625 198.824219 180.699219 201.957031 C 178.609375 198.410156 175.863281 194.382812 172.273438 190.253906 C 166.730469 183.886719 161.019531 179.402344 156.398438 176.335938 C 160.976562 180.5 165.871094 185.433594 170.785156 191.222656 C 174.332031 195.398438 177.425781 199.472656 180.121094 203.339844 Z M 180.121094 203.339844 "/><g clip-rule="nonzero" clip-path="url(#208ecd7949)"><g clip-rule="nonzero" clip-path="url(#9167da78c7)"><path style=" stroke:none;fill-rule:nonzero;fill:#5ea3e0;fill-opacity:1;" d="M 124.839844 110.085938 L 250.085938 110.085938 L 250.085938 154.679688 L 124.839844 154.679688 Z M 124.839844 110.085938 "/></g></g><g style="fill:#4289c8;fill-opacity:1;"><g transform="translate(79.524469, 237.76456)"><path style="stroke:none" d="M 2.921875 -0.40625 C 3.609375 -0.40625 4.195312 -0.648438 4.6875 -1.140625 C 5.1875 -1.628906 5.453125 -2.222656 5.484375 -2.921875 L 5.484375 -25.3125 C 5.398438 -25.957031 5.117188 -26.5 4.640625 -26.9375 C 4.160156 -27.375 3.585938 -27.59375 2.921875 -27.59375 L 2.4375 -27.59375 L 2.40625 -28 L 14.125 -28 C 14.945312 -28 15.84375 -28.078125 16.8125 -28.234375 C 17.789062 -28.398438 18.476562 -28.5625 18.875 -28.71875 L 18.875 -23.6875 L 18.484375 -23.6875 L 18.484375 -24.40625 C 18.484375 -25.039062 18.257812 -25.582031 17.8125 -26.03125 C 17.375 -26.488281 16.847656 -26.734375 16.234375 -26.765625 L 8.078125 -26.765625 L 8.078125 -14.40625 L 14.84375 -14.40625 C 15.375 -14.425781 15.828125 -14.625 16.203125 -15 C 16.578125 -15.375 16.765625 -15.84375 16.765625 -16.40625 L 16.765625 -16.953125 L 17.15625 -16.953125 L 17.15625 -10.640625 L 16.765625 -10.640625 L 16.765625 -11.234375 C 16.765625 -11.773438 16.582031 -12.226562 16.21875 -12.59375 C 15.863281 -12.96875 15.414062 -13.171875 14.875 -13.203125 L 8.078125 -13.203125 L 8.078125 -1.234375 L 13.796875 -1.234375 C 15.773438 -1.234375 17.28125 -1.671875 18.3125 -2.546875 C 19.351562 -3.429688 20.222656 -4.742188 20.921875 -6.484375 L 21.3125 -6.484375 L 19 0 L 2.40625 0 L 2.40625 -0.40625 Z M 2.921875 -0.40625 "/></g></g><g style="fill:#4289c8;fill-opacity:1;"><g transform="translate(105.80222, 237.76456)"><path style="stroke:none" d="M 16.6875 0.5625 C 12.46875 0.53125 9.03125 -0.816406 6.375 -3.484375 C 3.726562 -6.148438 2.40625 -9.660156 2.40625 -14.015625 C 2.40625 -18.378906 3.726562 -21.894531 6.375 -24.5625 C 9.03125 -27.226562 12.546875 -28.5625 16.921875 -28.5625 C 20.492188 -28.5625 23.65625 -27.65625 26.40625 -25.84375 L 27.203125 -20.203125 L 26.84375 -20.203125 C 26.25 -22.492188 25.054688 -24.257812 23.265625 -25.5 C 21.484375 -26.738281 19.367188 -27.359375 16.921875 -27.359375 C 13.429688 -27.359375 10.640625 -26.144531 8.546875 -23.71875 C 6.453125 -21.289062 5.40625 -18.078125 5.40625 -14.078125 C 5.40625 -10.078125 6.4375 -6.859375 8.5 -4.421875 C 10.5625 -1.984375 13.289062 -0.722656 16.6875 -0.640625 C 19.664062 -0.640625 22.15625 -1.453125 24.15625 -3.078125 C 26.320312 -4.835938 27.628906 -7.707031 28.078125 -11.6875 L 28.40625 -11.6875 L 27.921875 -5.40625 C 25.492188 -1.425781 21.75 0.5625 16.6875 0.5625 Z M 16.6875 0.5625 "/></g></g><g style="fill:#4289c8;fill-opacity:1;"><g transform="translate(140.199198, 237.76456)"><path style="stroke:none" d="M 6.78125 -24.53125 C 9.4375 -27.21875 12.894531 -28.5625 17.15625 -28.5625 C 21.425781 -28.5625 24.894531 -27.21875 27.5625 -24.53125 C 30.226562 -21.851562 31.5625 -18.34375 31.5625 -14 C 31.5625 -9.65625 30.226562 -6.140625 27.5625 -3.453125 C 24.894531 -0.773438 21.425781 0.5625 17.15625 0.5625 C 12.894531 0.5625 9.4375 -0.773438 6.78125 -3.453125 C 4.125 -6.140625 2.796875 -9.65625 2.796875 -14 C 2.796875 -18.34375 4.125 -21.851562 6.78125 -24.53125 Z M 8.96875 -4.3125 C 11.039062 -1.863281 13.773438 -0.640625 17.171875 -0.640625 C 20.578125 -0.640625 23.3125 -1.863281 25.375 -4.3125 C 27.445312 -6.769531 28.484375 -10 28.484375 -14 C 28.484375 -16.632812 28.015625 -18.96875 27.078125 -21 C 26.148438 -23.03125 24.820312 -24.597656 23.09375 -25.703125 C 21.375 -26.804688 19.394531 -27.359375 17.15625 -27.359375 C 13.769531 -27.359375 11.039062 -26.128906 8.96875 -23.671875 C 6.90625 -21.222656 5.875 -18 5.875 -14 C 5.875 -10 6.90625 -6.769531 8.96875 -4.3125 Z M 8.96875 -4.3125 "/></g></g><g style="fill:#4289c8;fill-opacity:1;"><g transform="translate(176.915904, 237.76456)"><path style="stroke:none" d="M 21.875 -0.40625 C 22.570312 -0.40625 23.164062 -0.644531 23.65625 -1.125 C 24.15625 -1.601562 24.414062 -2.1875 24.4375 -2.875 L 24.4375 -13.234375 L 8.078125 -13.234375 L 8.078125 -2.921875 C 8.078125 -2.222656 8.328125 -1.628906 8.828125 -1.140625 C 9.335938 -0.648438 9.941406 -0.40625 10.640625 -0.40625 L 11.15625 -0.40625 L 11.15625 0 L 2.40625 0 L 2.40625 -0.40625 L 2.921875 -0.40625 C 3.609375 -0.40625 4.195312 -0.648438 4.6875 -1.140625 C 5.1875 -1.628906 5.453125 -2.222656 5.484375 -2.921875 L 5.484375 -25.125 C 5.453125 -25.8125 5.1875 -26.394531 4.6875 -26.875 C 4.195312 -27.351562 3.609375 -27.59375 2.921875 -27.59375 L 2.40625 -27.59375 L 2.40625 -28 L 11.15625 -28 L 11.15625 -27.59375 L 10.640625 -27.59375 C 9.941406 -27.59375 9.347656 -27.351562 8.859375 -26.875 C 8.367188 -26.394531 8.109375 -25.8125 8.078125 -25.125 L 8.078125 -14.4375 L 24.4375 -14.4375 L 24.4375 -25.125 C 24.414062 -26.082031 23.988281 -26.800781 23.15625 -27.28125 C 22.757812 -27.488281 22.332031 -27.59375 21.875 -27.59375 L 21.359375 -27.59375 L 21.359375 -28 L 30.125 -28 L 30.125 -27.59375 L 29.59375 -27.59375 C 28.90625 -27.59375 28.3125 -27.347656 27.8125 -26.859375 C 27.320312 -26.367188 27.066406 -25.773438 27.046875 -25.078125 L 27.046875 -2.921875 C 27.066406 -2.222656 27.320312 -1.628906 27.8125 -1.140625 C 28.3125 -0.648438 28.90625 -0.40625 29.59375 -0.40625 L 30.125 -0.40625 L 30.125 0 L 21.359375 0 L 21.359375 -0.40625 Z M 21.875 -0.40625 "/></g></g><g style="fill:#4289c8;fill-opacity:1;"><g transform="translate(213.432671, 237.76456)"><path style="stroke:none" d="M 2.921875 -0.40625 C 3.609375 -0.40625 4.195312 -0.648438 4.6875 -1.140625 C 5.1875 -1.628906 5.453125 -2.222656 5.484375 -2.921875 L 5.484375 -25.3125 C 5.398438 -25.957031 5.117188 -26.5 4.640625 -26.9375 C 4.160156 -27.375 3.585938 -27.59375 2.921875 -27.59375 L 2.4375 -27.59375 L 2.40625 -28 L 14.125 -28 C 14.945312 -28 15.84375 -28.078125 16.8125 -28.234375 C 17.789062 -28.398438 18.476562 -28.5625 18.875 -28.71875 L 18.875 -23.6875 L 18.484375 -23.6875 L 18.484375 -24.40625 C 18.484375 -25.039062 18.257812 -25.582031 17.8125 -26.03125 C 17.375 -26.488281 16.847656 -26.734375 16.234375 -26.765625 L 8.078125 -26.765625 L 8.078125 -14.40625 L 14.84375 -14.40625 C 15.375 -14.425781 15.828125 -14.625 16.203125 -15 C 16.578125 -15.375 16.765625 -15.84375 16.765625 -16.40625 L 16.765625 -16.953125 L 17.15625 -16.953125 L 17.15625 -10.640625 L 16.765625 -10.640625 L 16.765625 -11.234375 C 16.765625 -11.773438 16.582031 -12.226562 16.21875 -12.59375 C 15.863281 -12.96875 15.414062 -13.171875 14.875 -13.203125 L 8.078125 -13.203125 L 8.078125 -1.234375 L 13.796875 -1.234375 C 15.773438 -1.234375 17.28125 -1.671875 18.3125 -2.546875 C 19.351562 -3.429688 20.222656 -4.742188 20.921875 -6.484375 L 21.3125 -6.484375 L 19 0 L 2.40625 0 L 2.40625 -0.40625 Z M 2.921875 -0.40625 "/></g></g><g style="fill:#4289c8;fill-opacity:1;"><g transform="translate(240.510375, 237.76456)"><path style="stroke:none" d="M 28.640625 -0.40625 L 28.96875 -0.40625 L 28.96875 0 L 19.96875 0 L 19.96875 -0.40625 L 20.328125 -0.40625 C 20.890625 -0.40625 21.304688 -0.582031 21.578125 -0.9375 C 21.859375 -1.300781 22 -1.640625 22 -1.953125 C 22 -2.273438 21.945312 -2.597656 21.84375 -2.921875 L 19.28125 -9.71875 L 8.484375 -9.71875 L 5.8125 -2.875 C 5.695312 -2.5625 5.640625 -2.25 5.640625 -1.9375 C 5.640625 -1.632812 5.78125 -1.300781 6.0625 -0.9375 C 6.34375 -0.582031 6.765625 -0.40625 7.328125 -0.40625 L 7.6875 -0.40625 L 7.6875 0 L -0.359375 0 L -0.359375 -0.40625 L 0 -0.40625 C 0.664062 -0.40625 1.316406 -0.617188 1.953125 -1.046875 C 2.597656 -1.472656 3.125 -2.097656 3.53125 -2.921875 L 12.5625 -24.4375 C 13.550781 -26.601562 14.046875 -27.976562 14.046875 -28.5625 L 14.40625 -28.5625 L 25.125 -2.921875 C 25.5 -2.097656 26.003906 -1.472656 26.640625 -1.046875 C 27.285156 -0.617188 27.953125 -0.40625 28.640625 -0.40625 Z M 8.96875 -10.921875 L 18.8125 -10.921875 L 14 -23.765625 Z M 8.96875 -10.921875 "/></g></g><g style="fill:#4289c8;fill-opacity:1;"><g transform="translate(272.987538, 237.76456)"><path style="stroke:none" d="M 2.921875 -0.40625 C 3.609375 -0.40625 4.195312 -0.648438 4.6875 -1.140625 C 5.1875 -1.628906 5.453125 -2.222656 5.484375 -2.921875 L 5.484375 -25.078125 C 5.453125 -25.773438 5.1875 -26.367188 4.6875 -26.859375 C 4.195312 -27.347656 3.609375 -27.59375 2.921875 -27.59375 L 2.40625 -27.59375 L 2.40625 -28 L 11.15625 -28 L 11.15625 -27.59375 L 10.640625 -27.59375 C 9.679688 -27.59375 8.945312 -27.179688 8.4375 -26.359375 C 8.195312 -25.960938 8.078125 -25.535156 8.078125 -25.078125 L 8.078125 -1.234375 L 13.796875 -1.234375 C 15.773438 -1.234375 17.28125 -1.671875 18.3125 -2.546875 C 19.351562 -3.429688 20.222656 -4.742188 20.921875 -6.484375 L 21.3125 -6.484375 L 19 0 L 2.40625 0 L 2.40625 -0.40625 Z M 2.921875 -0.40625 "/></g></g><g style="fill:#000000;fill-opacity:1;"><g transform="translate(109.529271, 259.664515)"><path style="stroke:none" d="M 1.296875 0 L 1.296875 -9.828125 L 6.421875 -9.828125 L 6.421875 -9.0625 L 2.109375 -9.0625 L 2.109375 -4.765625 L 5.8125 -4.765625 L 5.8125 -4.015625 L 2.109375 -4.015625 L 2.109375 0 Z M 1.296875 0 "/></g></g><g style="fill:#000000;fill-opacity:1;"><g transform="translate(126.023411, 259.664515)"><path style="stroke:none" d="M 0.59375 -5.015625 C 0.59375 -5.796875 0.644531 -6.46875 0.75 -7.03125 C 0.851562 -7.601562 1.015625 -8.117188 1.234375 -8.578125 C 1.679688 -9.503906 2.519531 -9.96875 3.75 -9.96875 C 5.144531 -9.957031 6.066406 -9.304688 6.515625 -8.015625 C 6.773438 -7.265625 6.90625 -6.378906 6.90625 -5.359375 C 6.90625 -4.347656 6.851562 -3.539062 6.75 -2.9375 C 6.644531 -2.34375 6.484375 -1.800781 6.265625 -1.3125 C 5.804688 -0.332031 4.96875 0.15625 3.75 0.15625 C 2.550781 0.15625 1.71875 -0.332031 1.25 -1.3125 C 0.8125 -2.207031 0.59375 -3.441406 0.59375 -5.015625 Z M 6.015625 -4.890625 C 6.015625 -5.429688 6 -5.863281 5.96875 -6.1875 C 5.945312 -6.519531 5.890625 -6.882812 5.796875 -7.28125 C 5.710938 -7.6875 5.59375 -8.019531 5.4375 -8.28125 C 5.28125 -8.539062 5.054688 -8.753906 4.765625 -8.921875 C 4.484375 -9.097656 4.144531 -9.1875 3.75 -9.1875 C 3.351562 -9.1875 3.007812 -9.097656 2.71875 -8.921875 C 2.4375 -8.753906 2.21875 -8.539062 2.0625 -8.28125 C 1.90625 -8.019531 1.78125 -7.691406 1.6875 -7.296875 C 1.550781 -6.671875 1.484375 -5.976562 1.484375 -5.21875 C 1.484375 -4.46875 1.507812 -3.859375 1.5625 -3.390625 C 1.625 -2.929688 1.726562 -2.476562 1.875 -2.03125 C 2.1875 -1.09375 2.8125 -0.625 3.75 -0.625 C 4.707031 -0.625 5.335938 -1.097656 5.640625 -2.046875 C 5.898438 -2.835938 6.023438 -3.785156 6.015625 -4.890625 Z M 6.015625 -4.890625 "/></g></g><g style="fill:#000000;fill-opacity:1;"><g transform="translate(142.517551, 259.664515)"><path style="stroke:none" d="M 0.8125 -2.828125 L 0.8125 -9.828125 L 1.640625 -9.828125 L 1.640625 -2.9375 C 1.640625 -1.394531 2.34375 -0.625 3.75 -0.625 C 4.457031 -0.625 4.984375 -0.835938 5.328125 -1.265625 C 5.679688 -1.691406 5.859375 -2.25 5.859375 -2.9375 L 5.859375 -9.828125 L 6.6875 -9.828125 L 6.6875 -2.828125 C 6.6875 -1.859375 6.429688 -1.117188 5.921875 -0.609375 C 5.421875 -0.0976562 4.6875 0.15625 3.71875 0.15625 C 2.75 0.15625 2.019531 -0.109375 1.53125 -0.640625 C 1.050781 -1.171875 0.8125 -1.898438 0.8125 -2.828125 Z M 0.8125 -2.828125 "/></g></g><g style="fill:#000000;fill-opacity:1;"><g transform="translate(159.011691, 259.664515)"><path style="stroke:none" d="M 5.90625 0 L 5.90625 -1.546875 L 1.640625 -8.265625 L 1.59375 -8.265625 L 1.59375 0 L 0.765625 0 L 0.765625 -9.828125 L 1.578125 -9.828125 L 5.859375 -3.03125 L 5.90625 -3.03125 L 5.90625 -9.828125 L 6.734375 -9.828125 L 6.734375 0 Z M 5.90625 0 "/></g></g><g style="fill:#000000;fill-opacity:1;"><g transform="translate(175.505831, 259.664515)"><path style="stroke:none" d="M 0.90625 0 L 0.90625 -9.828125 L 2.90625 -9.828125 C 3.644531 -9.828125 4.25 -9.753906 4.71875 -9.609375 C 5.195312 -9.460938 5.601562 -9.203125 5.9375 -8.828125 C 6.269531 -8.460938 6.507812 -7.960938 6.65625 -7.328125 C 6.800781 -6.691406 6.875 -5.882812 6.875 -4.90625 C 6.875 -3.9375 6.789062 -3.128906 6.625 -2.484375 C 6.46875 -1.835938 6.210938 -1.332031 5.859375 -0.96875 C 5.515625 -0.613281 5.109375 -0.363281 4.640625 -0.21875 C 4.171875 -0.0703125 3.582031 0 2.875 0 Z M 4.671875 -1.078125 C 5.097656 -1.296875 5.421875 -1.707031 5.640625 -2.3125 C 5.867188 -2.914062 5.984375 -3.78125 5.984375 -4.90625 C 5.984375 -6.03125 5.875 -6.894531 5.65625 -7.5 C 5.4375 -8.113281 5.113281 -8.53125 4.6875 -8.75 C 4.269531 -8.96875 3.675781 -9.078125 2.90625 -9.078125 L 1.71875 -9.078125 L 1.71875 -0.75 L 2.875 -0.75 C 3.644531 -0.75 4.242188 -0.859375 4.671875 -1.078125 Z M 4.671875 -1.078125 "/></g></g><g style="fill:#000000;fill-opacity:1;"><g transform="translate(191.999971, 259.664515)"><path style="stroke:none" d="M 0.25 0 L 3.078125 -9.828125 L 4.515625 -9.828125 L 7.234375 0 L 6.34375 0 L 5.734375 -2.265625 L 1.75 -2.265625 L 1.125 0 Z M 5.53125 -3.015625 L 3.921875 -9.078125 L 3.65625 -9.078125 L 1.96875 -3.015625 Z M 5.53125 -3.015625 "/></g></g><g style="fill:#000000;fill-opacity:1;"><g transform="translate(208.494111, 259.664515)"><path style="stroke:none" d="M 0.71875 -9.0625 L 0.71875 -9.828125 L 6.75 -9.828125 L 6.75 -9.0625 L 4.140625 -9.0625 L 4.140625 0 L 3.3125 0 L 3.3125 -9.0625 Z M 0.71875 -9.0625 "/></g></g><g style="fill:#000000;fill-opacity:1;"><g transform="translate(224.988251, 259.664515)"><path style="stroke:none" d="M 1.671875 0 L 1.671875 -0.75 L 3.359375 -0.75 L 3.359375 -9.078125 L 1.671875 -9.078125 L 1.671875 -9.828125 L 5.84375 -9.828125 L 5.84375 -9.078125 L 4.1875 -9.078125 L 4.1875 -0.75 L 5.84375 -0.75 L 5.84375 0 Z M 1.671875 0 "/></g></g><g style="fill:#000000;fill-opacity:1;"><g transform="translate(241.482391, 259.664515)"><path style="stroke:none" d="M 0.59375 -5.015625 C 0.59375 -5.796875 0.644531 -6.46875 0.75 -7.03125 C 0.851562 -7.601562 1.015625 -8.117188 1.234375 -8.578125 C 1.679688 -9.503906 2.519531 -9.96875 3.75 -9.96875 C 5.144531 -9.957031 6.066406 -9.304688 6.515625 -8.015625 C 6.773438 -7.265625 6.90625 -6.378906 6.90625 -5.359375 C 6.90625 -4.347656 6.851562 -3.539062 6.75 -2.9375 C 6.644531 -2.34375 6.484375 -1.800781 6.265625 -1.3125 C 5.804688 -0.332031 4.96875 0.15625 3.75 0.15625 C 2.550781 0.15625 1.71875 -0.332031 1.25 -1.3125 C 0.8125 -2.207031 0.59375 -3.441406 0.59375 -5.015625 Z M 6.015625 -4.890625 C 6.015625 -5.429688 6 -5.863281 5.96875 -6.1875 C 5.945312 -6.519531 5.890625 -6.882812 5.796875 -7.28125 C 5.710938 -7.6875 5.59375 -8.019531 5.4375 -8.28125 C 5.28125 -8.539062 5.054688 -8.753906 4.765625 -8.921875 C 4.484375 -9.097656 4.144531 -9.1875 3.75 -9.1875 C 3.351562 -9.1875 3.007812 -9.097656 2.71875 -8.921875 C 2.4375 -8.753906 2.21875 -8.539062 2.0625 -8.28125 C 1.90625 -8.019531 1.78125 -7.691406 1.6875 -7.296875 C 1.550781 -6.671875 1.484375 -5.976562 1.484375 -5.21875 C 1.484375 -4.46875 1.507812 -3.859375 1.5625 -3.390625 C 1.625 -2.929688 1.726562 -2.476562 1.875 -2.03125 C 2.1875 -1.09375 2.8125 -0.625 3.75 -0.625 C 4.707031 -0.625 5.335938 -1.097656 5.640625 -2.046875 C 5.898438 -2.835938 6.023438 -3.785156 6.015625 -4.890625 Z M 6.015625 -4.890625 "/></g></g><g style="fill:#000000;fill-opacity:1;"><g transform="translate(257.976531, 259.664515)"><path style="stroke:none" d="M 5.90625 0 L 5.90625 -1.546875 L 1.640625 -8.265625 L 1.59375 -8.265625 L 1.59375 0 L 0.765625 0 L 0.765625 -9.828125 L 1.578125 -9.828125 L 5.859375 -3.03125 L 5.90625 -3.03125 L 5.90625 -9.828125 L 6.734375 -9.828125 L 6.734375 0 Z M 5.90625 0 "/></g></g></g></svg>